<svg width="62" height="70" viewBox="0 0 62 70" fill="none" xmlns="http://www.w3.org/2000/svg">
<path fill-rule="evenodd" clip-rule="evenodd" d="M0.391602 8.74054H2.57779V0.0209351H0.391602V8.74054ZM6.95018 4.38061H9.13637V0.0209351H6.95018V4.38061ZM13.5085 8.74054H15.6947V0.0209351H13.5085V8.74054ZM20.0671 4.38061H22.2533V0.0209351H20.0671V4.38061ZM26.6257 8.74054H28.8119V0.0209351H26.6257V8.74054ZM33.184 4.38061H35.3702V0.0209351H33.184V4.38061ZM39.7426 8.74054H41.9288V0.0209351H39.7426V8.74054ZM46.3009 4.38061H48.4871V0.0209351H46.3009V4.38061ZM52.8595 8.74054H55.0457V0.0209351H52.8595V8.74054ZM59.4201 0.0209351V4.38086H61.6063V0.0209351H59.4201ZM0.391602 69.7785H2.57779V61.0589H0.391602V69.7785ZM6.95018 69.7786H9.13637V65.4186H6.95018V69.7786ZM13.5085 69.7785H15.6947V61.0589H13.5085V69.7785ZM20.0671 69.7786H22.2533V65.4186H20.0671V69.7786ZM26.6257 69.7785H28.8119V61.0589H26.6257V69.7785ZM33.184 69.7786H35.3702V65.4186H33.184V69.7786ZM39.7426 69.7785H41.9288V61.0589H39.7426V69.7785ZM46.3009 69.7786H48.4871V65.4186H46.3009V69.7786ZM52.8595 69.7785H55.0457V61.0589H52.8595V69.7785ZM59.4201 69.7786H61.6063V65.4186H59.4201V69.7786Z" fill="#B39546"/>
</svg>
